<svg width="73" height="30" viewBox="0 0 73 30" fill="none" xmlns="http://www.w3.org/2000/svg">
<g clip-path="url(#clip0)">
<path d="M41.8108 2.95898H39.5011V4.03936H40.5538V6.85773C40.5538 7.46838 40.161 7.79719 39.5639 7.79719C38.9668 7.79719 38.5426 7.48404 38.5426 6.85773V6.1688H37.3799V6.88905C37.3799 8.15731 38.3541 8.90888 39.5796 8.90888C40.8052 8.90888 41.8265 8.15731 41.8265 6.88905V2.95898H41.8108Z" fill="#383535"/>
<path d="M45.2989 4.86931L46.116 6.7952H44.4819L45.2989 4.86931ZM46.5088 7.85992L46.9644 8.83069H48.2686V8.65846L45.5817 2.91211H45.0004L42.2979 8.65846V8.83069H43.602L44.0576 7.85992H46.5088Z" fill="#383535"/>
<path d="M51.5213 6.40363C51.7099 6.40363 51.8827 6.41928 52.0241 6.51323C52.197 6.63849 52.2913 6.8577 52.2913 7.09256C52.2598 7.484 52.0084 7.73452 51.5842 7.73452H50.1858V6.38797H51.5213V6.40363ZM51.3328 4.03933C51.7728 4.03933 52.0399 4.32116 52.0399 4.74392C52.0242 5.13536 51.757 5.37022 51.3328 5.37022H50.1858V4.03933H51.3328ZM53.2654 4.7126C53.2654 3.61657 52.4955 2.97461 51.4114 2.97461H48.9131V8.83056H51.6471C52.8255 8.83056 53.5168 8.12596 53.5168 7.09256C53.5168 6.49757 53.2183 6.01219 52.6841 5.79298C53.0455 5.55812 53.2654 5.13536 53.2654 4.7126Z" fill="#383535"/>
<path d="M56.7373 4.86931L57.5544 6.7952H55.936L56.7373 4.86931ZM57.9629 7.85992L58.4185 8.83069H59.7227V8.65846L57.0358 2.91211H56.4545L53.752 8.65846V8.83069H55.0561L55.5117 7.85992H57.9629Z" fill="#383535"/>
<path d="M61.6085 5.85577V4.05514H62.8655C63.3997 4.05514 63.7297 4.44658 63.7297 4.94763C63.7454 5.44867 63.3997 5.85577 62.8655 5.85577H61.6085ZM63.9025 6.68562C64.5781 6.35681 64.9552 5.69919 64.9552 4.96328C64.9552 3.92988 64.2167 2.95911 62.8812 2.95911C62.0484 2.94345 61.2157 2.95911 60.3672 2.95911V8.83072H61.6242V6.88917H62.6769L63.8868 8.83072H65.2381V8.65848L63.9025 6.68562Z" fill="#383535"/>
<path d="M39.2961 16.8946V13.309H40.2074C41.2758 13.309 41.8572 14.1545 41.8572 15.094C41.8572 16.0334 41.2915 16.8946 40.2074 16.8946H39.2961ZM38.0391 12.1816V18.0376H40.2231C42.1243 18.0376 43.1299 16.5971 43.0985 15.094C43.0985 13.6065 42.0929 12.1973 40.2231 12.1973H38.0391V12.1816Z" fill="#383535"/>
<path d="M45.8173 17.0355V13.1368H46.5872V12.166H43.8061V13.1368H44.5603V17.0355H43.7275V18.022H46.6501V17.0355H45.8173Z" fill="#383535"/>
<path d="M47.2793 15.0942C47.2793 17.0357 48.7248 18.1004 50.2804 18.1004C51.4117 18.1004 52.4487 17.5994 52.9044 16.4251C53.0929 15.8927 53.1086 15.3447 53.0772 14.781H50.3275V15.8301H51.9302C51.6788 16.7069 51.0974 16.9574 50.2804 16.9574C49.2276 16.9574 48.552 16.2058 48.552 15.0942C48.552 14.0451 49.1805 13.2152 50.2804 13.2152C50.956 13.2152 51.4274 13.4344 51.7102 14.0138H52.9515C52.6215 12.6516 51.4431 12.0879 50.2804 12.0879C48.7406 12.1035 47.2793 13.1526 47.2793 15.0942Z" fill="#383535"/>
<path d="M55.8262 17.0355V13.1368H56.5804V12.166H53.7993V13.1368H54.5535V17.0355H53.7207V18.022H56.6432V17.0355H55.8262Z" fill="#383535"/>
<path d="M58.749 13.262V18.022H59.9746V13.262H61.5301V12.166H57.1777V13.262H58.749Z" fill="#383535"/>
<path d="M64.1856 14.0764L65.0027 16.0023H63.3686L64.1856 14.0764ZM65.3955 17.0513L65.8512 18.0221H67.1553V17.8499L64.4685 12.1035H63.8871L61.1846 17.8499V18.0221H62.4887L62.9444 17.0513H65.3955Z" fill="#383535"/>
<path d="M68.8517 12.166H67.5947V18.022H71.3028V16.9103H68.8517V12.166Z" fill="#383535"/>
<path d="M37.71 25.5059C37.71 26.7898 38.9355 27.3692 40.0982 27.3692C41.261 27.3379 42.4551 26.9151 42.4551 25.5372C42.4551 24.1594 41.3867 23.8932 40.1454 23.7836C39.5326 23.7209 39.0141 23.5957 39.0141 23.079C39.0141 22.6249 39.5169 22.3587 40.0197 22.3587C40.5225 22.3587 41.0253 22.5623 41.0881 23.032H42.2666C42.2666 21.7168 41.1196 21.2627 40.0197 21.2627C38.857 21.2627 37.7885 21.8107 37.7885 23.1103C37.7885 24.3316 38.857 24.6761 39.9254 24.77C40.4911 24.817 41.2138 24.8639 41.2138 25.5372C41.2138 26.1479 40.6168 26.2731 40.0825 26.2731C39.5169 26.2731 38.9198 26.0539 38.9041 25.5059H37.71Z" fill="#383535"/>
<path d="M47.0747 21.373H43.4766V27.229H47.1376V26.1016H44.7493V24.7551H46.9176V23.6591H44.7493V22.4691H47.0747V21.373Z" fill="#383535"/>
<path d="M49.5255 24.2689V22.4682H50.7825C51.3167 22.4682 51.6467 22.8597 51.6467 23.3607C51.6624 23.8618 51.3167 24.2689 50.7825 24.2689H49.5255ZM51.8195 25.0987C52.4951 24.7699 52.8722 24.1123 52.8722 23.3764C52.8722 22.343 52.1337 21.3722 50.7982 21.3722C49.9654 21.3565 49.1327 21.3722 48.2842 21.3722V27.2438H49.5412V25.3023H50.5939L51.8038 27.2438H53.1551V27.0716L51.8195 25.0987Z" fill="#383535"/>
<path d="M56.0624 25.1465L55.4024 23.252L54.6168 21.373H53.2812V21.5609L55.811 27.2916H56.3295L58.8277 21.5609V21.373H57.4922L56.7066 23.2676L56.0938 25.1465H56.0624Z" fill="#383535"/>
<path d="M61.3573 26.2426V22.3438H62.1115V21.373H59.3304V22.3438H60.1003V26.2426H59.2676V27.229H62.1901V26.2426H61.3573Z" fill="#383535"/>
<path d="M62.8184 24.316C62.8184 26.2576 64.2796 27.291 65.8194 27.291C67.045 27.291 68.302 26.649 68.5534 25.0989H67.3435C67.1393 25.8035 66.5422 26.1479 65.8194 26.1479C64.7667 26.1479 64.0911 25.3181 64.0911 24.3003C64.0911 23.1887 64.7824 22.4371 65.8351 22.4371C66.5422 22.4371 67.0764 22.7346 67.3278 23.3922H68.5534C68.2863 21.9517 67.0293 21.3097 65.8351 21.3097C64.2796 21.2941 62.8184 22.3588 62.8184 24.316Z" fill="#383535"/>
<path d="M72.9214 21.373H69.3232V27.229H72.9999V26.1016H70.5959V24.7551H72.78V23.6591H70.5959V22.4691H72.9214V21.373Z" fill="#383535"/>
<path fill-rule="evenodd" clip-rule="evenodd" d="M11.6272 10.2871C12.0986 10.2871 12.4914 10.6785 12.4914 11.1482C12.4914 11.618 12.0986 12.0094 11.6272 12.0094C11.1558 12.0094 10.763 11.618 10.763 11.1482C10.7787 10.6628 11.1558 10.2871 11.6272 10.2871ZM8.28046 10.2871C8.75183 10.2871 9.14464 10.6785 9.14464 11.1482C9.14464 11.618 8.76754 12.0094 8.28046 12.0094C7.80908 12.0094 7.41627 11.618 7.41627 11.1482C7.41627 10.6628 7.79337 10.2871 8.28046 10.2871ZM4.91799 10.2871C5.38937 10.2871 5.78218 10.6785 5.78218 11.1482C5.78218 11.618 5.40508 12.0094 4.91799 12.0094C4.44662 12.0094 4.05381 11.618 4.05381 11.1482C4.05381 10.6628 4.44662 10.2871 4.91799 10.2871ZM9.77314 3.42902H5.12226C4.65088 3.42902 4.25807 3.82046 4.25807 4.29019C4.25807 4.75992 4.65088 5.15136 5.12226 5.15136H13.1042C13.5756 5.15136 13.9526 5.5428 13.9526 6.01253C13.9526 6.48225 13.5598 6.8737 13.0885 6.8737H0.518511C0.329961 6.8737 0.157124 6.96764 0.0628498 7.13987C0.0314249 7.20251 0 7.29645 0 7.3904C0 7.48434 0.0157124 7.56263 0.0628498 7.65658L1.99548 11.023C2.05833 11.1326 2.18403 11.1795 2.29402 11.1482C2.41972 11.1169 2.49828 11.0073 2.49828 10.8977V8.56472H16.1524C16.6238 8.56472 17.0166 8.95616 17.0166 9.42589C17.0166 9.89562 16.6238 10.2871 16.1524 10.2871H14.9897C14.5183 10.2871 14.1255 10.6785 14.1255 11.1482C14.1255 11.618 14.5183 12.0094 14.9897 12.0094H16.4824C19.1535 12.0251 21.5418 13.1837 23.1916 15C24.6214 13.4029 25.4856 11.3048 25.4856 9.00313C25.4856 4.05532 21.4789 0.0313152 16.5138 0L9.39604 0C8.92467 0 8.53186 0.391441 8.53186 0.861169C8.53186 1.3309 8.92467 1.72234 9.39604 1.72234H9.726H9.78885C10.2602 1.72234 10.653 2.11378 10.653 2.58351C10.6373 3.03758 10.2445 3.42902 9.77314 3.42902Z" fill="#1BACE3"/>
<path d="M16.4824 0C24.7629 0 31.5349 6.74843 31.5349 15C31.5349 23.2516 24.7629 30 16.4824 30C21.4633 29.9843 25.4857 25.9603 25.4857 20.9969C25.4857 18.6952 24.6215 16.5971 23.1916 15C24.6215 13.4029 25.4857 11.3048 25.4857 9.00313C25.5014 4.03967 21.4633 0.0156576 16.4824 0Z" fill="#009457"/>
<path fill-rule="evenodd" clip-rule="evenodd" d="M23.1914 15C21.5416 16.8476 19.1376 18.0063 16.4665 18.0063H7.41613C4.32078 18.0063 1.77536 20.3236 1.42969 23.3142V24.6921C1.77536 27.6827 4.32078 30 7.41613 30H16.4822C21.4631 29.9843 25.4854 25.9603 25.4854 20.9969C25.5012 18.6952 24.6213 16.5971 23.1914 15Z" fill="#FFC630"/>
</g>
<defs>
<clipPath id="clip0">
<rect width="73" height="30" fill="white"/>
</clipPath>
</defs>
</svg>
