<svg width="93"
     height="50"
     viewBox="0 0 93 50"
     fill="none"
     xmlns="http://www.w3.org/2000/svg">
  <path d="M9.75378 33.4063C8.1975 34.5584 7.0444 36.1721 6.45869 38.0176C5.87298 39.8632 5.88453 41.8465 6.4917 43.6852C7.09886 45.5238 8.27069 47.1239 9.84028 48.2578C11.4099 49.3916 13.2972 50.0013 15.2335 50C17.1698 49.9986 19.0563 49.3864 20.6243 48.2505C22.1924 47.1145 23.362 45.5128 23.9667 43.6733C24.5714 41.8339 24.5802 39.8505 23.992 38.0058C23.4038 36.161 22.2485 34.5488 20.6907 33.3989L15.22 40.7855L9.75378 33.4063Z"
        fill="#28A8E0" />
  <path d="M9.75378 33.4063L15.22 40.7855L20.6907 33.3989C19.1066 32.2302 17.1895 31.6002 15.221 31.6016C13.2525 31.6029 11.3363 32.2354 9.75378 33.4063Z"
        fill="#049C57" />
  <path d="M30.454 15.2273C30.454 6.81611 23.6342 0 15.2274 0C6.82058 0 1.81767e-05 6.81611 1.81767e-05 15.2273C-0.00545189 18.7615 1.22385 22.1866 3.4755 24.9107H3.46068L9.75373 33.4064C11.3362 32.2355 13.2524 31.603 15.221 31.6017C17.1895 31.6003 19.1066 32.2303 20.6906 33.399L26.9792 24.9107C29.2303 22.1863 30.4593 18.7614 30.454 15.2273ZM15.2274 23.9379C13.4079 23.9379 11.6292 23.3984 10.1164 22.3875C8.60353 21.3766 7.4244 19.9399 6.72811 18.2589C6.03182 16.5779 5.84963 14.7282 6.2046 12.9436C6.55957 11.1591 7.43574 9.51989 8.72231 8.23331C10.0089 6.94674 11.6481 6.07057 13.4326 5.7156C15.2172 5.36063 17.0669 5.54282 18.7479 6.23911C20.4289 6.9354 21.8656 8.11452 22.8765 9.62738C23.8874 11.1402 24.4269 12.9189 24.4269 14.7384C24.4269 17.1782 23.4577 19.5182 21.7324 21.2434C20.0072 22.9687 17.6672 23.9379 15.2274 23.9379Z"
        fill="#FBC82D" />
  <path d="M41.7954 5.11961L41.7613 5.11517C40.3425 4.92254 39.4809 4.73584 39.4809 3.77417C39.4809 2.39317 41.3486 2.35316 41.5612 2.35316C42.0502 2.35316 43.6535 2.44948 43.7365 3.69564L43.7506 3.90605H45.9191L45.9139 3.67564C45.8613 1.16108 43.5431 0.267578 41.5768 0.267578C39.4105 0.267578 37.2241 1.36631 37.2241 3.82011C37.2241 5.72862 38.64 6.81772 41.4294 7.05776H41.4449C42.9334 7.20594 43.9869 7.39709 43.9869 8.53953C43.9869 9.83088 42.5363 10.0213 41.6709 10.0213C40.61 10.0213 39.346 9.63307 39.2764 8.53953L39.263 8.32763H37.0315L37.0359 8.55805C37.0389 8.98915 37.1286 9.41525 37.2997 9.81097C37.4707 10.2067 37.7197 10.5639 38.0317 10.8614C38.8467 11.6468 40.1639 12.1076 41.5627 12.1076H41.7028C42.8778 12.1076 43.9632 11.8261 44.7604 11.3149C45.7413 10.6859 46.2592 9.7316 46.2592 8.55508C46.2592 5.85309 44.0514 5.37374 41.7954 5.11961ZM41.5635 1.90048C40.304 1.90048 39.0311 2.47985 39.0311 3.77417C39.0311 5.20037 40.4507 5.393 41.7028 5.56266L41.742 5.56785C42.2945 5.62307 42.8434 5.7099 43.386 5.8279C42.8434 5.7099 42.2945 5.62307 41.742 5.56785L41.7028 5.56266C40.4507 5.393 39.0311 5.20037 39.0311 3.77417C39.0311 2.47985 40.3025 1.90048 41.5635 1.90048C42.4659 1.90048 43.432 2.15831 43.9024 2.82584C43.4298 2.15831 42.4636 1.90048 41.5635 1.90048ZM45.399 3.09256C45.216 2.22795 44.6818 1.63599 43.9839 1.25962C44.6818 1.63599 45.216 2.22795 45.3968 3.09256H45.399ZM43.8283 1.1796L43.9091 1.21887L43.8283 1.1796ZM41.4894 6.61101H41.4709C38.9178 6.38874 37.6761 5.47968 37.6761 3.82381C37.6727 3.40125 37.7622 2.98311 37.9384 2.59901C38.1145 2.21491 38.373 1.87425 38.6955 1.60117C38.373 1.87425 38.1145 2.21491 37.9384 2.59901C37.7622 2.98311 37.6727 3.40125 37.6761 3.82381C37.6761 5.47968 38.9178 6.39171 41.4709 6.61101H41.4894C41.7228 6.63398 41.9724 6.65843 42.2236 6.69399C41.9724 6.65843 41.7228 6.63398 41.4894 6.61101ZM43.4312 7.00738C44.0128 7.27039 44.4388 7.72307 44.4388 8.54471C44.4388 7.72307 44.0128 7.27039 43.4312 7.00738ZM37.5005 8.7855C37.5005 8.82254 37.5086 8.85959 37.5131 8.89663C37.5086 8.85959 37.5042 8.82254 37.5005 8.7855ZM38.3443 10.5414C38.2615 10.4615 38.1833 10.3769 38.1102 10.288C38.1833 10.3769 38.2615 10.4615 38.3443 10.5414C38.4665 10.6574 38.5972 10.7639 38.7355 10.86C38.7824 10.8921 38.8299 10.9232 38.8778 10.9533C38.8284 10.9232 38.781 10.8921 38.7355 10.86C38.5973 10.7641 38.4665 10.6578 38.3443 10.5421V10.5414ZM41.6976 11.6601C41.487 11.6647 41.2762 11.658 41.0663 11.6401C41.2762 11.658 41.487 11.6647 41.6976 11.6601C43.1215 11.6601 44.7211 11.203 45.4316 10.0094C44.7211 11.2037 43.1193 11.6609 41.6976 11.6609V11.6601ZM45.8072 8.55953C45.8131 8.20591 45.7608 7.85374 45.6524 7.51711C45.7608 7.85374 45.8131 8.20591 45.8072 8.55953ZM45.4961 7.16C45.5579 7.27333 45.6097 7.39182 45.6509 7.51414C45.6096 7.39208 45.5578 7.27383 45.4961 7.16074V7.16Z"
        fill="black" />
  <path d="M57.1391 0.394043L51.9729 11.3969V11.9088H54.257L55.3239 9.63136H60.0581L61.1413 11.9066H63.4084V11.3947L58.2741 0.394043H57.1391ZM55.4299 8.09922H59.9655L57.7073 2.91304L59.9655 8.09922H55.4299ZM57.7051 4.04363L59.2758 7.64728H56.1226L57.7051 4.04363ZM57.4265 0.849685L52.4441 11.4562L57.4265 0.849685ZM60.3441 9.18461L61.4265 11.4599L60.3441 9.18461Z"
        fill="black" />
  <path d="M68.087 2.5412H71.2728V11.9089H73.514V2.5412H76.6998V0.472656H68.087V2.5412ZM73.0613 11.4562H71.7277V2.08926V11.4562H73.0613V2.08926V11.4562ZM68.5419 0.924594V2.08926V0.924594Z"
        fill="black" />
  <path d="M90.1786 0.472656V7.94815C90.1786 9.17357 89.3066 9.96558 87.956 9.96558C86.5876 9.96558 85.703 9.17357 85.703 7.94815V0.472656H83.4307V7.99483C83.4307 10.4205 85.2495 12.0497 87.956 12.0497C90.5928 12.0497 92.4346 10.3827 92.4346 7.99483V0.472656H90.1786ZM89.4244 10.076L89.4 10.09L89.4244 10.076ZM89.2184 10.176C89.1821 10.1923 89.1443 10.2071 89.1073 10.2212C89.1429 10.2041 89.1799 10.1893 89.2162 10.173L89.2184 10.176ZM87.9589 11.6007C85.9319 11.6007 83.8841 10.4894 83.8841 7.99779V0.924594V7.99483C83.8841 10.4835 85.9304 11.5977 87.9589 11.5977C89.2429 11.5977 90.5342 11.1406 91.2929 10.1575C90.5357 11.1406 89.2407 11.5977 87.9567 11.5977L87.9589 11.6007Z"
        fill="black" />
  <path d="M42.4718 19.3008H37.6953V30.737H39.9832V27.4416H42.4718C44.8478 27.4416 46.5733 25.7427 46.5733 23.403C46.5733 22.2917 46.1888 21.2723 45.4924 20.5277C44.7404 19.7253 43.6965 19.3008 42.4718 19.3008ZM42.4718 25.3893H39.9528V21.3375H42.4718C43.5831 21.3375 44.3632 22.1673 44.3632 23.3549C44.3632 24.5425 43.5675 25.3893 42.4718 25.3893ZM44.8159 23.3556C44.8159 22.5058 44.4685 21.7946 43.9017 21.3552C43.6577 21.1674 43.3774 21.0322 43.0786 20.9581C43.3774 21.0322 43.6577 21.1674 43.9017 21.3552C44.4685 21.7931 44.8159 22.5044 44.8159 23.3556ZM43.6453 26.8141C43.6994 26.797 43.7535 26.7792 43.8068 26.76C43.7535 26.7792 43.6994 26.797 43.6453 26.8141ZM45.9421 24.6085C45.8942 24.7559 45.8366 24.8999 45.7694 25.0397C45.5652 25.4613 45.2735 25.8346 44.9137 26.1347C44.87 26.171 44.8256 26.2088 44.7796 26.2406C44.7337 26.2725 44.6885 26.308 44.6411 26.3399C44.5937 26.3718 44.547 26.4029 44.4981 26.4318C44.3993 26.491 44.3005 26.5456 44.2017 26.5955C44.304 26.5461 44.4028 26.4915 44.4981 26.4318C44.547 26.4029 44.5944 26.3718 44.6411 26.3399C44.6878 26.308 44.7344 26.2747 44.7796 26.2406C44.8248 26.2065 44.87 26.171 44.9137 26.1347C45.2724 25.835 45.5634 25.4625 45.7672 25.0419C45.8343 24.9022 45.892 24.7581 45.9398 24.6107C45.9591 24.5499 45.9769 24.4884 45.9932 24.4262C45.9769 24.487 45.9591 24.5477 45.9398 24.6085H45.9421ZM46.0762 24.035C46.0606 24.1358 46.0421 24.2336 46.0191 24.3314C46.0421 24.2358 46.0606 24.138 46.0762 24.035C46.0865 23.9683 46.0954 23.9002 46.1021 23.8313C46.0932 23.9002 46.0828 23.9683 46.0739 24.035H46.0762Z"
        fill="black" />
  <path d="M56.0492 25.8724H60.6315V23.8046H56.0492V21.3538H60.9005V19.3008H53.7614V30.737H60.9924V28.6211H56.0492V25.8724ZM54.214 19.7527V30.2844V19.7527Z"
        fill="black" />
  <path d="M67.5847 21.3693H70.7705V30.737H73.0117V21.3693H76.1975V19.3008H67.5847V21.3693ZM72.5583 30.2844H71.2247V20.9174V30.2844H72.5583V20.9174V30.2844ZM68.0389 19.7535V20.9174V19.7535Z"
        fill="black" />
  <path d="M87.3796 19.2222H86.2445L81.0784 30.228V30.7399H83.3618L84.4294 28.4647H89.1636L90.2468 30.7399H92.5139V30.228L87.3796 19.2222ZM84.5346 26.9236L86.8121 21.7375L84.5346 26.9236ZM88.3805 26.4717H85.2273L86.8098 22.868L88.3805 26.4717ZM86.5283 19.6748L81.5459 30.2843L86.5283 19.6748ZM89.4452 28.009L90.5357 30.2843L89.4452 28.009Z"
        fill="black" />
  <path d="M40.8967 40.1661H43.2186V45.6487C43.2186 46.8926 42.4296 47.635 41.1071 47.635C39.7846 47.635 38.9793 46.8941 38.9793 45.6487V44.2173H36.8167V45.6827C36.8167 48.0987 38.5399 49.722 41.1064 49.722C43.6876 49.722 45.4902 48.061 45.4902 45.6827V38.1257H40.8967V40.1661ZM42.7119 47.649C42.8077 47.5841 42.8981 47.5115 42.9823 47.432C42.8981 47.5115 42.8077 47.5841 42.7119 47.649C42.2933 47.9328 41.7487 48.0869 41.1071 48.0869C40.742 48.0913 40.3788 48.034 40.0328 47.9172C40.3788 48.034 40.742 48.0913 41.1071 48.0869C41.7487 48.0899 42.2925 47.935 42.7111 47.652L42.7119 47.649ZM37.2664 45.6827V44.6692V45.6827C37.2664 46.6888 37.6049 47.5394 38.2014 48.1595C37.6072 47.5394 37.2664 46.6888 37.2664 45.6827ZM45.0382 38.5814V45.6827C45.0382 46.8681 44.5537 47.8417 43.7224 48.4729C44.5537 47.8417 45.0382 46.8704 45.0382 45.6827V38.5814Z"
        fill="black" />
  <path d="M52.1656 38.051L46.9994 49.0531V49.5651H49.2835L50.3504 47.2898H55.0846L56.1678 49.5651H58.4349V49.0539L53.3006 38.051H52.1656ZM52.453 38.503H53.0124L53.9363 40.4833L53.0116 38.503H52.4545L49.1331 45.5762L52.453 38.503ZM51.1491 45.2998L52.7316 41.6969L54.3023 45.2998H51.1491ZM54.992 45.7518L52.7694 40.6434L54.992 45.7518ZM48.9961 49.1131L49.3295 48.4019L48.9961 49.1131ZM56.453 49.1131L56.399 48.9998L56.453 49.1131Z"
        fill="black" />
  <path d="M67.5685 43.5912C68.2197 43.114 68.5857 42.3658 68.5857 41.4774C68.5857 39.4119 67.178 38.1294 64.9072 38.1294H60.2249V49.5649H65.3621C67.6159 49.5649 69.0717 48.2313 69.0717 46.1694C69.0725 44.9988 68.5316 44.0824 67.5685 43.5912ZM64.9072 38.5813C66.9276 38.5813 68.133 39.6638 68.133 41.4774C68.133 42.3665 67.7211 43.057 66.9728 43.4245L66.8506 43.4845L66.9728 43.4245C67.7211 43.054 68.133 42.3658 68.133 41.4774C68.133 39.6638 66.9276 38.5813 64.9072 38.5813ZM65.2525 47.5119H62.4979V44.7492H65.0495C65.494 44.7492 65.9637 44.7721 66.3379 45.0455C66.655 45.313 66.8157 45.6908 66.8165 46.1568C66.7639 47.3363 65.8141 47.5119 65.2532 47.5119H65.2525ZM66.6113 44.6855C66.4945 44.5989 66.3673 44.5274 66.2327 44.4728C66.3673 44.5274 66.4945 44.5989 66.6113 44.6855ZM64.7828 43.257H62.0459V39.7112V43.2541H64.7828C65.6229 43.2541 66.2193 42.9903 66.5357 42.4947C66.2193 42.9933 65.6229 43.257 64.7828 43.257ZM66.3453 41.5212C66.3327 42.3732 65.8067 42.8051 64.7828 42.8051H62.4979V40.1661H64.7828C65.494 40.1661 66.3453 40.4017 66.3453 41.5212ZM65.7163 39.8675C66.4068 40.1283 66.798 40.7077 66.798 41.5249C66.8036 41.866 66.7138 42.2019 66.5386 42.4947C66.7138 42.2019 66.8036 41.866 66.798 41.5249C66.7972 40.7077 66.406 40.1283 65.7163 39.8675ZM67.2721 46.1694C67.2766 45.8822 67.2213 45.5971 67.1099 45.3322C67.2213 45.5971 67.2766 45.8822 67.2721 46.1694ZM66.7231 48.9107C67.9219 48.5084 68.6242 47.5341 68.6242 46.1694C68.6242 45.0255 68.0486 44.1987 67.0039 43.8416L66.772 43.7616L67.0039 43.8416C68.0486 44.1987 68.6242 45.027 68.6242 46.1694C68.6205 47.5312 67.9182 48.5054 66.7194 48.9077L66.7231 48.9107ZM66.5424 48.9655C66.592 48.9522 66.6409 48.9374 66.6905 48.9218C66.6372 48.9344 66.5883 48.9492 66.5386 48.9626L66.5424 48.9655Z"
        fill="black" />
  <path d="M75.1995 38.051L70.0333 49.0531V49.5651H72.3175L73.3843 47.2898H78.1193L79.2003 49.5651H81.4681V49.0539L76.333 38.051H75.1995ZM70.5038 49.1131L75.4855 38.503H76.0456L78.3682 43.4802L76.0456 38.503H75.4855L70.5038 49.1131ZM73.4895 45.7518L73.5947 45.5124L73.4895 45.7518ZM78.0252 45.7518L75.7663 40.5656L78.0252 45.7518ZM75.7648 41.6969L77.3347 45.2998H74.1815L75.7648 41.6969ZM78.4031 46.8379L78.9958 48.0803L78.4031 46.8379ZM73.0954 46.8379L72.739 47.5988L73.0954 46.8379Z"
        fill="black" />
  <path d="M89.8786 45.3293C90.5328 45.0367 91.0875 44.5596 91.4746 43.9565C91.8618 43.3534 92.0646 42.6505 92.0582 41.9338C92.0582 39.6949 90.3972 38.1309 88.0197 38.1309H83.2588V49.5649H85.5466V45.736H87.6211L90.3505 49.5649H92.545V48.9989L89.8786 45.3293ZM89.8334 41.9486C89.8334 43.0081 89.0636 43.7779 88.0034 43.7779H85.5155V40.1661H88.0034C89.0636 40.1661 89.8334 40.9158 89.8334 41.9486ZM90.0705 42.9659C90.2147 42.6463 90.288 42.2992 90.2853 41.9486C90.2886 41.5758 90.2017 41.2077 90.0319 40.8758C90.2017 41.2077 90.2886 41.5758 90.2853 41.9486C90.288 42.2992 90.2147 42.6463 90.0705 42.9659ZM89.9512 40.7343C89.9675 40.761 89.9838 40.7884 89.9993 40.8158C89.9838 40.7884 89.9675 40.761 89.9512 40.7343ZM89.1658 45.1196L89.2718 45.0818L89.1658 45.1196ZM91.55 42.5628C91.5877 42.3558 91.6065 42.1457 91.6063 41.9353C91.6064 42.1447 91.5875 42.3538 91.55 42.5599V42.5628ZM91.427 43.0385C91.4778 42.8896 91.5179 42.7374 91.547 42.5828C91.517 42.7364 91.4762 42.8877 91.4248 43.0355L91.427 43.0385ZM83.7107 38.5843H88.0167C89.7949 38.5843 91.1284 39.5652 91.4989 41.0573C91.1284 39.5652 89.7993 38.5843 88.0167 38.5843H83.7107ZM90.5839 49.1159L89.56 47.6801L90.5839 49.1159Z"
        fill="black" />
</svg>